<svg xmlns="http://www.w3.org/2000/svg" xmlns:xlink="http://www.w3.org/1999/xlink" version="1.1" x="0px" y="0px" fill="#2563eb" viewBox="0 0 74 92.5" style="enable-background:new 0 0 74 74;" xml:space="preserve"><path d="M68,29.08c0.56-1.98,0.54-4.07-0.08-6.19C65.57,15.04,55.5,10.86,46.75,10.8c-7.01,0.05-15.77,2.83-19.69,8.91  c-1.31-0.1-2.59,0.04-3.79,0.46c-1.98-0.56-4.07-0.54-6.18,0.08C9.23,22.6,5.06,32.68,5,41.43c0.06,8.73,4.23,18.81,12.09,21.16  c2.14,0.63,4.18,0.65,6.18,0.09c4.06,1.44,9.54-0.06,13.69-5.55c17.92,6.47,34.86-5.98,31.02-16.85C69.33,36.77,69.35,32.9,68,29.08  z M40.2,50.95c0.7-2.03,1.23-4.56,1.44-7.05c11.14,2.05,24.66-3.28,26.2-12.76C71.13,45.16,55.51,54.61,40.2,50.95z M27.88,19.8  c3.86-5.64,12.18-8.21,18.87-8.26c8.47,0.06,18.22,4.05,20.46,11.57c0.73,2.47,0.58,4.92-0.41,7.17  c-2.87,6.37-13.5,11.86-25.07,9.77c0-0.02,0-0.03,0-0.04C41.48,31.2,36.41,21.13,27.88,19.8z M17.3,61.89  c-7.52-2.25-11.51-12-11.57-20.46c0.06-8.47,4.05-18.23,11.57-20.47c13.89-4.09,23.28,20.24,13.02,35.31  C27.17,60.86,22.61,63.46,17.3,61.89z M25.71,62.45c7.17-1.44,11.43-9.54,12.53-16.79c1.54-10.06-3.08-23.29-12.43-25.24  c6.35-0.35,11.59,5.52,13.73,11.79C44.75,47.4,35.88,63.14,25.71,62.45z M37.41,56.53c0.46-0.66,0.89-1.36,1.28-2.1  c12.39,3.71,27.03-1.94,29.06-11.54C68.3,53.47,52.11,61.69,37.41,56.53z"/></svg>