<svg xmlns="http://www.w3.org/2000/svg" xmlns:xlink="http://www.w3.org/1999/xlink" version="1.1" x="0px" y="0px" fill="#2563eb" viewBox="0 0 500 625" style="enable-background:new 0 0 500 500;" xml:space="preserve"><g><path d="M152.8,471.4c-1.8,0-3.6-1-4.5-2.8c-1.2-2.5-0.2-5.5,2.2-6.7c10.8-5.4,99.9-40.2,152.1-60.4   c69.9-27.1,139.7-53.9,143.6-55.1c1.3-0.4,1.8-0.7,1.9-0.8c0.4-0.6,0.7-2.5,1-4.6c0.4-2.3,0.8-5.2,1.7-8.9   c3.7-15.7,12.6-82,12.6-128.1c-1.2,0.1-3.2,0.4-6.4,1.3c-16.8,4.5-298.9,81.6-301.8,82.4c-2.7,0.7-5.4-0.8-6.1-3.5s0.8-5.4,3.5-6.1   c2.9-0.8,285-77.9,301.8-82.4c8.5-2.3,13-2.2,16,0.1c3,2.3,3,5.8,3,7.6v0.3c0,46.9-9,114.6-12.9,130.7c-0.8,3.3-1.2,6-1.6,8.1   c-1,6.1-1.8,11-9.9,13.4c-11.1,3.4-277.1,106.4-294,114.8C154.3,471.2,153.5,471.4,152.8,471.4z"/><path d="M152.8,471.4c-0.2,0-0.4,0-0.6,0c-2.7-0.3-4.7-2.8-4.4-5.5c4.2-35.4-5.7-157.9-7.7-176.8l-40.9-28.4   c-1.9-1.4-2.7-3.9-1.8-6.1c3.1-7.2,7.8-17.1,13.2-28.5c12.8-27,30.2-63.9,31.5-77.8c1.8-19.2-1.8-26.4-5.2-29   c-3.5-2.8-9.3-2.8-17.3-0.1c-2.6,0.9-5.4-0.5-6.3-3.1c-0.9-2.6,0.5-5.4,3.1-6.3c11.4-3.8,20.4-3.3,26.7,1.7   c7.8,6.2,10.7,18.6,8.9,37.8c-1.5,15.7-18.6,52-32.4,81.2c-4.5,9.5-8.4,17.8-11.4,24.5l39.3,27.3c1.1,0.8,1.9,2,2.1,3.4   c1.2,8.1,12.6,142.5,8,181.5C157.4,469.5,155.2,471.4,152.8,471.4z"/><path d="M141,459.4c-1.5,0-2.9-0.6-3.9-1.9c-4.9-6.1-15.7-19.8-28.1-35.5c-22.9-29-54.2-68.6-56.5-71.1c-2.8-2.9-3.2-6.5-3.7-19.2   c-0.5-11.9-13-129.4-13.2-130.6c-0.3-2.8,1.7-5.2,4.4-5.5s5.2,1.7,5.5,4.4c0.5,4.9,12.7,119,13.2,131.3c0.1,3.1,0.4,11.1,1,12.8   c1.7,2,14.2,17.7,57,71.7c12.4,15.6,23.2,29.3,28,35.4c1.7,2.2,1.4,5.3-0.8,7C143.2,459,142.1,459.4,141,459.4z M52.6,350.9   C52.6,350.9,52.6,351,52.6,350.9C52.6,351,52.6,351,52.6,350.9z"/><path d="M84.6,222.3c-2.6,0-4.8-2-5-4.6c-0.3-2.9-6.3-72.3-6.3-84.6c0-12,1.9-18.6,12.3-21.2c4.2-1,9.5-1.5,15.1-2.1   c3.5-0.3,7.1-0.7,10.5-1.2c4.6-0.7,8.3,0.2,11.2,2.5c4.2,3.4,5,9,5.2,12.8c0.3,5.8,0,15.7,0,16.1c-0.1,2.8-2.4,4.9-5.2,4.8   c-2.8-0.1-4.9-2.4-4.8-5.1c0-0.1,0.3-9.9,0-15.3c-0.2-4-1.1-5.2-1.5-5.6c-0.8-0.6-2.5-0.5-3.4-0.4c-3.6,0.5-7.3,0.9-11,1.2   c-5.2,0.5-10.2,1-13.6,1.8c-3.5,0.9-4.7,1.2-4.7,11.5c0,11.9,6.2,83,6.3,83.8c0.2,2.8-1.8,5.2-4.6,5.4   C84.9,222.3,84.7,222.3,84.6,222.3z"/><path d="M81.6,231.7c-0.3,0-0.6,0-1-0.1c-2.7-0.4-4.6-3-4.1-5.8c0.2-1.1,0.8-2.1,1.5-2.9c3.9-6,26.4-54.9,40-85.1   c1.1-2.5,4.1-3.6,6.6-2.5c2.5,1.1,3.6,4.1,2.5,6.6c-0.1,0.2-9.9,22-19.9,43.5c-5.8,12.6-10.6,22.7-14.1,29.9   c-2.1,4.3-3.8,7.7-5,9.9C86.4,228.8,84.8,231.7,81.6,231.7z M82.3,221.8L82.3,221.8C82.3,221.8,82.3,221.8,82.3,221.8z M81.5,221.7   c0.2,0,0.5,0,0.7,0.1C82,221.7,81.8,221.7,81.5,221.7z"/><path d="M59.2,218.5c-1.1,0-2.2-0.4-3.1-1.1L37.6,203c-2.2-1.7-2.6-4.8-0.9-7s4.8-2.6,7-0.9l13.4,10.4l17.6-42.1   c1.1-2.6,4-3.8,6.5-2.7s3.8,4,2.7,6.5l-20.1,48.1c-0.6,1.4-1.8,2.5-3.3,2.9C60,218.5,59.6,218.5,59.2,218.5z"/><path d="M142.7,120.6c-0.4,0-0.8,0-1.2-0.1c-2.7-0.7-4.3-3.3-3.7-6c0.6-2.6,4.3-15.9,13.6-18.4c7.7-2.1,174.8-25.2,176-25.3   c0.3,0,0.6-0.1,0.9-0.1c5.2-0.5,17.5-1.7,22.6,7.2c3.6,6.2,12.4,22,15.4,28.1c1.2,2.5,0.2,5.5-2.3,6.7c-2.5,1.2-5.5,0.2-6.7-2.3   c-2.7-5.6-11.2-20.7-15.1-27.6c-1.9-3.3-9.9-2.5-12.9-2.2c-0.4,0-0.8,0.1-1.1,0.1c-7.5,0.7-168.1,23.4-174.2,25   c-2.5,0.7-5.5,6.9-6.5,11.1C147,119,144.9,120.6,142.7,120.6z"/><path d="M122.6,217.7c-2.2,0-4.3-1.5-4.8-3.8c-0.7-2.7,0.9-5.4,3.6-6.1l59.5-15.4c-0.6-5-1.5-13.1-1.7-17   c-0.4-7.5,4.6-20.1,20.1-24c7.2-1.8,33-7.1,55.7-11.7c16.8-3.4,32.8-6.7,37.3-7.8c9-2.1,16.8-1.2,21.9,2.6c2.7,2,6,5.9,6.4,12.9   c0.3,6.1,0.3,11.7,0.2,15.8l67.5-13.2c1.2-0.2,2.4,0,3.5,0.6l76.6,44c2.4,1.4,3.2,4.4,1.8,6.8c-1.4,2.4-4.4,3.2-6.8,1.8l-74.9-43.1   l-72,14.1c-1.5,0.3-3.1-0.1-4.3-1.2c-1.2-1-1.8-2.6-1.7-4.1c0-0.1,0.7-9.9,0.1-21c-0.1-2.6-0.9-4.4-2.4-5.5   c-2.6-1.9-7.7-2.3-13.6-0.9c-4.7,1.1-19.9,4.2-37.6,7.8c-22.6,4.6-48.3,9.9-55.3,11.6c-10.7,2.7-12.7,11-12.6,13.7   c0.3,5.4,2.1,20.6,2.2,20.7c0.3,2.5-1.3,4.8-3.7,5.4l-63.7,16.5C123.4,217.7,123,217.7,122.6,217.7z"/><path d="M429.7,183.4c-2.1,0-4.1-1.4-4.8-3.5c-0.1-0.5-15.3-48.5-32.5-70.7C375.9,87.7,352.3,83,344.6,83c-2.8,0-5-2.2-5-5   s2.2-5,5-5c11.3,0,37.4,6.3,55.8,30.1c18.2,23.7,33.5,71.8,34.1,73.8c0.8,2.6-0.6,5.4-3.3,6.3C430.7,183.3,430.2,183.4,429.7,183.4   z"/><path d="M391.9,105.8c-2.8,0-5-2.2-5-5c0-13.4-0.5-22.5-0.5-22.5c0-0.3,0-0.7,0-1c-2.5,0.2-5.2,0.5-7.8,0.9   c-2.4,0.3-4.6,0.6-6.8,0.8c-0.6,0.1-0.9,0.2-1,0.2c0,0.1,0,0.1,0,0.2c0.6,2.7-1.2,5.3-3.9,5.9c-2.7,0.6-5.4-1.2-5.9-3.9   c-0.6-2.9,0-5.9,1.7-8.2c1.3-1.7,3.8-3.9,8.3-4.2c1.9-0.2,4.1-0.4,6.4-0.7c3.1-0.4,6.4-0.8,9.5-1c2.9-0.2,5.4,0.8,7.2,2.7   c2.5,2.8,2.5,6.6,2.4,8.2c0.1,2,0.5,10.5,0.5,22.7C396.9,103.6,394.7,105.8,391.9,105.8z"/><path d="M389.2,160.1c-2.1,0-4-1.3-4.7-3.4c-4.2-12.1-18.6-47-22-52.1c-1-0.6-2.7-0.7-3.1-0.6c-2.8,0.2-5.1-1.9-5.3-4.7   s1.9-5.1,4.7-5.3c0.6,0,6-0.2,10.1,2.9c1.2,0.9,3,2.2,12.8,25.6c4.9,11.6,10.2,24.9,12.3,31.1c0.9,2.6-0.5,5.5-3.1,6.4   C390.3,160,389.7,160.1,389.2,160.1z"/><path d="M316.7,371.1c-3.8,0-7.2-0.8-10.2-2.5c-4.7-2.7-8-7.5-9.5-13.9c-1.9-7.8-1.3-30.5-0.1-44c1.5-17.1,20.6-33.2,32.3-34.7l0,0   c7.3-0.9,13.6,0.7,18.7,4.7c8.7,6.9,10.3,17.9,10.4,19.1c0.9,7.5-1.9,33-1.9,33.3c-1.2,10.8-10.2,30.2-29.2,36.1   C323.4,370.5,319.9,371.1,316.7,371.1z M330.5,286c-7.1,0.9-22.5,13.3-23.6,25.6c-1.4,15.9-1.4,35.4-0.1,40.8   c0.9,3.7,2.5,6.2,4.8,7.5c2.9,1.6,7.2,1.6,12.8-0.1c15-4.6,21.5-20.6,22.2-27.6c1.1-10.2,2.4-26.7,1.9-31.1   c-0.3-2.8-2.1-8.9-6.6-12.4C338.8,286.3,335.1,285.4,330.5,286L330.5,286z"/></g></svg>