<svg xmlns="http://www.w3.org/2000/svg" fill="#2563eb" version="1.1" viewBox="-5.0 -10.0 110.0 135.0">
 <g>
  <path d="m80.469 84.375h-4.6875v-26.562h1.5625c2.5859 0 4.6875-2.1016 4.6875-4.6875v-3.125c0-2.5859-2.1016-4.6875-4.6875-4.6875h-6.2773c-0.089844-1.6875-0.45703-3.8008-1.4766-6.0469-0.94141-2.0312-2.082-3.4531-2.875-4.293-0.29688-0.3125-0.72656-0.48828-1.1445-0.48828-0.43359 0.003906-0.84375 0.18359-1.1367 0.5-0.54688 0.58594-1.0391 1.2148-1.4883 1.875-0.10547-0.26562-0.20312-0.53125-0.32031-0.79297-0.73438-1.5898-1.7031-3.043-2.8828-4.3164-0.29688-0.31641-0.71094-0.5-1.1445-0.5s-0.84766 0.17969-1.1445 0.5c-1.1836 1.2734-2.1523 2.7227-2.8867 4.3164-1.2109 2.6406-1.707 5.6172-1.4375 8.4648 0 0.26172 0.027344 0.52344 0.0625 0.78125h-2.4844c-0.86328 0-1.5625 0.69922-1.5625 1.5625s0.69922 1.5625 1.5625 1.5625h26.641c0.86328 0 1.5625 0.69922 1.5625 1.5625v3.125c0 0.86328-0.69922 1.5625-1.5625 1.5625h-29.191c-0.86328 0-1.5625 0.69922-1.5625 1.5625s0.69922 1.5625 1.5625 1.5625h24.5v26.562h-37.5v-26.562h3.375c0.86328 0 1.5625-0.69922 1.5625-1.5625s-0.69922-1.5625-1.5625-1.5625h-8.0625c-0.86328 0-1.5625-0.69922-1.5625-1.5625v-3.125c0-0.41406 0.14844-0.78125 0.43359-1.0664 0.60938-0.60938 0.60938-1.5977 0-2.2109-0.60938-0.60938-1.5977-0.60938-2.2109 0-0.87109 0.86719-1.3516 2.0312-1.3516 3.2773v3.125c0 2.5859 2.1016 4.6875 4.6875 4.6875h1.5625v26.562h-4.6875c-2.5859 0-4.6875 2.1016-4.6875 4.6875v3.125c0 2.5859 2.1016 4.6875 4.6875 4.6875h53.125c2.5859 0 4.6875-2.1016 4.6875-4.6875v-3.125c0.003906-2.5859-2.0977-4.6875-4.6836-4.6875zm-24.223-39.984c-0.22656-2.4492 0.17578-4.875 1.1602-7.0156 0.33594-0.73047 0.73438-1.4258 1.1875-2.0781 0.45312 0.65234 0.85156 1.3438 1.1875 2.0703 0.59766 1.3242 0.97656 2.7031 1.125 4.1328 0.14062 1.0938 0.10156 2.0273 0.042969 2.8555 0 0.015625-0.003907 0.039062-0.003907 0.054687-0.003906 0.042969-0.003906 0.085938-0.003906 0.12891 0 0.26172-0.046875 0.51953-0.13281 0.76172-0.003906 0.007813-0.007813 0.011719-0.007813 0.019531h-4.4102c-0.09375-0.27734-0.14453-0.58203-0.14453-0.92969zm7.7656 0.92188c0.03125-0.21875 0.046875-0.4375 0.046875-0.65234 0-0.011718 0-0.023437 0.003906-0.035156 0-0.007812 0.003906-0.015625 0.003906-0.023438 0.003906-0.054687 0.007813-0.125 0.011719-0.18359 0.011719-0.14844 0.019531-0.29688 0.03125-0.46094 0.007813-0.125 0.007813-0.26172 0.011719-0.39844 0.003906-0.125 0.007812-0.24219 0.007812-0.375 0-0.16016-0.003906-0.33203-0.007812-0.50391-0.003906-0.12109-0.003906-0.23828-0.011719-0.36328-0.007813-0.17578-0.023437-0.35938-0.039063-0.54297-0.007812-0.10156-0.011718-0.19531-0.023437-0.29688 0.10938-0.29687 0.23047-0.59375 0.375-0.91016 0.32812-0.71875 0.71484-1.3984 1.1602-2.0391 0.39453 0.56641 0.80078 1.2461 1.168 2.0391 0.79688 1.75 1.1016 3.4023 1.1914 4.7422zm18.02 46.875c0 0.86328-0.69922 1.5625-1.5625 1.5625h-53.125c-0.86328 0-1.5625-0.69922-1.5625-1.5625v-3.125c0-0.86328 0.69922-1.5625 1.5625-1.5625h53.125c0.86328 0 1.5625 0.69922 1.5625 1.5625z"/>
  <path d="m28.789 39.918 1.4141 3.0898c0.33984 0.74609 0.95703 1.3125 1.7305 1.5938 0.34375 0.125 0.70312 0.19141 1.0625 0.19141 0.4375 0 0.87109-0.09375 1.2812-0.28125l1.4492-0.66797 4.8398 7.8164c0.61328 0.97266 1.6797 1.5234 2.7734 1.5234 0.45312 0 0.91016-0.09375 1.3438-0.28906 1.5156-0.67188 2.2695-2.3711 1.7578-3.9375l-2.7578-8.7695 1.4688-0.67578c1.5312-0.70312 2.2031-2.5234 1.5039-4.0586l-1.4062-3.0586c0.14062-0.20312 0.26562-0.42188 0.35156-0.66016 0.28516-0.76562 0.25391-1.5938-0.085937-2.3359l-11.227-24.492c-0.70312-1.5312-2.5195-2.207-4.0469-1.5l-13.594 6.2344c-0.75 0.33984-1.3242 0.94531-1.6094 1.7148-0.28516 0.76172-0.25781 1.5938 0.082032 2.3516l11.238 24.484c0.46484 1.0039 1.4062 1.6094 2.4297 1.7266zm14.68 9.9922c0.015625 0.050782-0.007812 0.10938-0.050781 0.12891-0.007813 0.003907-0.015625 0.007813-0.023438 0.011719-0.074219 0.03125-0.14844 0-0.17578-0.042969l-4.6289-7.4727 2.2344-1.0273zm-7.3867-9.6719-0.40625 0.1875h-0.003906l-2.625 1.2852-1.2227-2.668 10.523-4.8281 0.24219-0.10938 1.1953 2.6016zm-4.6328-34.031 11.195 24.434-13.477 6.1719-11.227-24.328z"/>
  <path d="m54.23 19.43 24.367 14.051c0.23828 0.13672 0.50781 0.21094 0.78125 0.21094 0.13672 0 0.27344-0.015625 0.40625-0.054687 0.39844-0.10938 0.74219-0.37109 0.94922-0.73047l0.78125-1.3516c2.0898-3.625 2.6406-7.8359 1.5469-11.855-0.44141-1.6445-1.1445-3.1758-2.0781-4.582 0.17578-0.23047 0.35547-0.46094 0.5-0.71484 1.9375-3.3594 0.77734-7.668-2.582-9.6055-3.3516-1.9375-7.6641-0.78125-9.6055 2.582-0.14453 0.25-0.25391 0.51562-0.36328 0.78125-5.8945-0.38281-11.492 2.5742-14.496 7.7852l-0.78125 1.3516c-0.20703 0.35938-0.26172 0.78516-0.15625 1.1875 0.10938 0.39453 0.37109 0.73828 0.73047 0.94531zm23.109-11.926c1.7812 1.0273 2.4492 3.2539 1.5703 5.0781-0.078125-0.074219-0.16797-0.13672-0.24609-0.21094-0.31641-0.29688-0.64844-0.58203-0.99219-0.85547-0.13672-0.10547-0.26953-0.21484-0.40625-0.32031-0.47656-0.35156-0.96484-0.68359-1.4883-0.98437-0.51953-0.30078-1.0547-0.55859-1.5977-0.79297-0.15625-0.070313-0.31641-0.12891-0.47656-0.19141-0.41016-0.16406-0.82812-0.30859-1.25-0.43359-0.10156-0.03125-0.19531-0.074219-0.29688-0.10156 1.1406-1.6758 3.4023-2.2148 5.1836-1.1875zm-7.5195 3.8867c1.5352 0.21875 3.0156 0.73438 4.3945 1.5312 0.69141 0.39844 1.3359 0.85547 1.9258 1.3633 0.58984 0.50781 1.125 1.0664 1.6016 1.6758l0.003906 0.003906c1.0742 1.3516 1.8438 2.8828 2.2891 4.5469 0.87109 3.2148 0.43359 6.582-1.2383 9.4805l-21.656-12.488c2.5898-4.4844 7.5625-6.8828 12.68-6.1133z"/>
  <path d="m69.949 14.062c-0.75-0.43359-1.7031-0.17578-2.1328 0.57422l-1.5625 2.707c-0.43359 0.74609-0.17578 1.7031 0.57422 2.1328 0.24609 0.14063 0.51562 0.21094 0.77734 0.21094 0.53906 0 1.0664-0.28125 1.3555-0.78125l1.5625-2.707c0.42969-0.75 0.17187-1.7031-0.57422-2.1367z"/>
  <path d="m75.363 17.188c-0.75391-0.43359-1.7031-0.17578-2.1328 0.57422l-1.5625 2.707c-0.43359 0.74609-0.17578 1.7031 0.57031 2.1328 0.24609 0.14063 0.51562 0.21094 0.78125 0.21094 0.53906 0 1.0664-0.28125 1.3555-0.78125l1.5625-2.707c0.42969-0.75 0.17188-1.707-0.57422-2.1367z"/>
 </g>
</svg>