<svg xmlns="http://www.w3.org/2000/svg" version="1.1" fill="#2563eb" viewBox="-5.0 -10.0 110.0 135.0">
 <g>
  <path d="m93.602 26.602c-1.5 0.39844-3.1016-0.10156-4.1992-1.1992-0.30078-0.30078-0.80078-0.39844-1.1992-0.19922-1.6016 0.89844-3.6016 0.30078-4.3984-1.1992-0.19922-0.30078-0.30078-0.69922-0.39844-1.1016-0.10156-0.30078-0.19922-0.60156-0.5-0.69922-0.30078-0.10156-0.60156-0.19922-0.89844 0-2.1016 0.89844-4.6016 0-5.6992-1.8984-0.39844-0.69922-0.60156-1.3984-0.60156-2.1992 0-0.5-0.39844-0.89844-0.89844-1-1.1016-0.10156-2-0.69922-2.6016-1.6016-0.69922-1.1992-0.60156-2.6016 0.30078-3.6992 0.19922-0.19922 0.30078-0.60156 0.19922-0.89844-0.10156-0.30078-0.30078-0.5-0.60156-0.69922-0.80078-0.30078-1.3984-0.89844-1.8008-1.6016-0.5-0.89844-0.69922-2-0.39844-3 0.10156-0.30078 0-0.60156-0.10156-0.80078-0.10156-0.19922-0.39844-0.39844-0.69922-0.5-1.707-0.20313-3.4062-0.30469-5.1055-0.30469-10.699 0-20.199 5.3008-26 13.398-0.10156 0.10156-0.10156 0.10156-0.10156 0.19922-1.1016 1.6016-2.1016 3.1992-2.8984 5v0.10156c-1.3984 3-2.3008 6.1992-2.6992 9.5-16.199 1.9023-28.301 15.402-28.301 31.801 0 17.602 14.398 32 32 32 16.398 0 29.898-12.102 31.801-28.199 13.898-1.6016 25.102-12.199 27.699-25.898v-0.19922c0.30078-1.6016 0.5-3.3008 0.5-5v-0.10156-0.69922c0-2.8984-0.39844-5.8984-1.1992-8.6992-0.10156-0.40234-0.69922-0.70312-1.1992-0.60156zm-54.5-7.3008c0.60156 0.39844 0.89844 1 0.89844 1.6992 0 1.1016-0.89844 2-2 2-0.30078 0-0.60156-0.10156-0.89844-0.19922 0.59766-1.1992 1.1992-2.4023 2-3.5zm-12.5 16.199c0.19922 0.39844 0.39844 0.89844 0.39844 1.3984 0 1.6992-1.3008 3-3 3-1.3008 0-2.3984-0.80078-2.8008-2 1.6992-1 3.5-1.7969 5.4023-2.3984zm16.699 57.602c-0.19922-0.30078-0.30078-0.70312-0.30078-1.1016 0-1.1016 0.89844-2 2-2s2 0.89844 2 1.8984c-1.1992 0.5-2.3984 0.90234-3.6992 1.2031zm5.5977-2c-0.39844-1.8008-2-3.1016-3.8984-3.1016-2.1992 0-4 1.8008-4 4 0 0.5 0.10156 1.1016 0.30078 1.5-1.6992 0.30078-3.5 0.5-5.3008 0.5-16.5 0-30-13.5-30-30 0-10.5 5.3008-19.699 13.5-25.102 0.80078 1.8008 2.5 3 4.5 3 2.8008 0 5-2.1992 5-5 0-0.69922-0.19922-1.3984-0.39844-2 1.1016-0.30078 2.3008-0.5 3.5-0.69922v1.6992c0 16.301 12.199 29.699 27.898 31.699h0.10156c1.3008 0.19922 2.6016 0.30078 3.8984 0.30078h1.6992c-1.3008 10.402-7.8008 19-16.801 23.203zm12.102-25.203c0.10156-1 0.89844-1.8984 2-1.8984s2 0.89844 2 2h-1c-1 0-2-0.10156-3-0.10156zm32.602-25c-0.20312 0.10156-0.40234 0.10156-0.60156 0.10156-1.1016 0-2-0.89844-2-2s0.89844-2 2-2c0.39844 0 0.69922 0.10156 1 0.30078-0.10156 1.1992-0.19922 2.3984-0.39844 3.5977zm-0.60156-5.8984c-2.1992 0-4 1.8008-4 4s1.8008 4 4 4h0.19922c-3 12.199-13.398 21.602-26.199 22.898-0.10156-2.1016-1.8008-3.8984-4-3.8984-2.1016 0-3.6992 1.6016-4 3.6016-14.102-2.4023-25-14.703-25-29.602 0-4 0.80078-7.8984 2.3008-11.398 0.5 0.30078 1.1016 0.39844 1.6992 0.39844 2.1992 0 4-1.8008 4-4 0-1.3984-0.69922-2.6016-1.6992-3.3008 5.3984-7.0977 14-11.699 23.699-11.699 1.3008 0 2.5 0.10156 3.8008 0.19922-0.10156 1.1992 0.10156 2.3984 0.80078 3.5 0.39844 0.80078 1 1.3984 1.8008 1.8984-0.69922 1.6016-0.69922 3.3984 0.19922 4.8984 0.69922 1.1992 1.8984 2.1016 3.3008 2.5 0.10156 0.80078 0.39844 1.6016 0.80078 2.3008 1.5 2.5 4.3984 3.8008 7.1992 3.1016 0.10156 0.19922 0.19922 0.5 0.30078 0.69922 1.3008 2.3008 4.1016 3.1992 6.5 2.3008 1.3008 1 2.8984 1.5 4.6016 1.3984 0.5 2.1016 0.80078 4.1992 0.89844 6.3984-0.50391-0.09375-0.90234-0.19531-1.2031-0.19531z"/>
  <path d="m96 6c0 2.668-4 2.668-4 0s4-2.668 4 0"/>
  <path d="m96 19c0 2.668-4 2.668-4 0s4-2.668 4 0"/>
  <path d="m68 44c0 2.668-4 2.668-4 0s4-2.668 4 0"/>
  <path d="m82 40c0 2.668-4 2.668-4 0s4-2.668 4 0"/>
  <path d="m51 19c0 2.668-4 2.668-4 0s4-2.668 4 0"/>
  <path d="m64 56c0 2.668-4 2.668-4 0s4-2.668 4 0"/>
  <path d="m32 60h0.10156c0.5 0 1-0.30078 1.3984-0.69922 0.30078-0.39844 0.5-0.89844 0.5-1.5 0-0.5-0.30078-1-0.69922-1.3984-0.39844-0.30078-0.89844-0.5-1.5-0.5-0.5 0-1 0.30078-1.3984 0.69922-0.30078 0.39844-0.5 0.89844-0.5 1.5 0 0.5 0.30078 1 0.69922 1.3984 0.5 0.30078 0.89844 0.5 1.3984 0.5z"/>
  <path d="m35.699 67.102c-0.5-0.19922-1-0.19922-1.5 0-0.5 0.19922-0.89844 0.60156-1.1016 1.1016-0.19922 0.5-0.19922 1 0 1.5 0.19922 0.5 0.60156 0.89844 1.1016 1.1016 0.30078 0.19531 0.60156 0.19531 0.80078 0.19531 0.30078 0 0.5-0.10156 0.80078-0.19922 0.5-0.19922 0.89844-0.60156 1.1016-1.1016 0.19922-0.5 0.19922-1 0-1.5-0.30078-0.5-0.70312-0.89844-1.2031-1.0977z"/>
  <path d="m31.898 82c-0.5 0-1 0.30078-1.3984 0.69922-0.30078 0.39844-0.5 0.89844-0.5 1.5 0 0.5 0.30078 1 0.69922 1.3984 0.39844 0.30078 0.80078 0.5 1.3008 0.5h0.10156c0.5 0 1-0.30078 1.3984-0.69922 0.30078-0.39844 0.5-0.89844 0.5-1.5 0-0.5-0.30078-1-0.69922-1.3984-0.40234-0.39844-0.90234-0.5-1.4023-0.5z"/>
  <path d="m57.898 73c-0.5 0-1 0.30078-1.3984 0.69922-0.30078 0.39844-0.5 0.89844-0.5 1.5 0 0.5 0.30078 1 0.69922 1.3984 0.39844 0.30078 0.80078 0.5 1.3008 0.5h0.10156c0.5 0 1-0.30078 1.3984-0.69922 0.30078-0.39844 0.5-0.89844 0.5-1.5 0-0.5-0.30078-1-0.69922-1.3984-0.40234-0.39844-0.90234-0.5-1.4023-0.5z"/>
  <path d="m16 67h0.10156c0.5 0 1-0.30078 1.3984-0.69922 0.30078-0.39844 0.5-0.89844 0.5-1.5 0-0.5-0.30078-1-0.69922-1.3984-0.40234-0.40234-0.90234-0.40234-1.4023-0.40234s-1 0.30078-1.3984 0.69922c-0.30078 0.39844-0.5 0.89844-0.5 1.5 0 0.5 0.30078 1 0.69922 1.3984 0.40234 0.20312 0.80078 0.40234 1.3008 0.40234z"/>
  <path d="m43 36c0 2.668-4 2.668-4 0s4-2.668 4 0"/>
  <path d="m85 16c0 2.668-4 2.668-4 0s4-2.668 4 0"/>
  <path d="m76 31c0 2.668-4 2.668-4 0s4-2.668 4 0"/>
  <path d="m83 7c0 2.668-4 2.668-4 0s4-2.668 4 0"/>
  <path d="m76 49c-2.1992 0-4 1.8008-4 4s1.8008 4 4 4 4-1.8008 4-4-1.8008-4-4-4zm0 6c-1.1016 0-2-0.89844-2-2s0.89844-2 2-2 2 0.89844 2 2-0.89844 2-2 2z"/>
  <path d="m64 32c0-2.1992-1.8008-4-4-4s-4 1.8008-4 4 1.8008 4 4 4 4-1.8008 4-4zm-6 0c0-1.1016 0.89844-2 2-2s2 0.89844 2 2-0.89844 2-2 2-2-0.89844-2-2z"/>
  <path d="m20 69.5c-3 0-5.5 2.5-5.5 5.5s2.5 5.5 5.5 5.5 5.5-2.5 5.5-5.5-2.5-5.5-5.5-5.5zm0 9c-1.8984 0-3.5-1.6016-3.5-3.5s1.6016-3.5 3.5-3.5 3.5 1.6016 3.5 3.5-1.6016 3.5-3.5 3.5z"/>
  <path d="m49 42.5c-3 0-5.5 2.5-5.5 5.5s2.5 5.5 5.5 5.5 5.5-2.5 5.5-5.5-2.5-5.5-5.5-5.5zm0 9c-1.8984 0-3.5-1.6016-3.5-3.5s1.6016-3.5 3.5-3.5 3.5 1.6016 3.5 3.5-1.6016 3.5-3.5 3.5z"/>
  <path d="m48 69.5c-3 0-5.5 2.5-5.5 5.5s2.5 5.5 5.5 5.5 5.5-2.5 5.5-5.5-2.5-5.5-5.5-5.5zm0 9c-1.8984 0-3.5-1.6016-3.5-3.5s1.6016-3.5 3.5-3.5 3.5 1.6016 3.5 3.5-1.6016 3.5-3.5 3.5z"/>
  <path d="m19 58c2.1992 0 4-1.8008 4-4s-1.8008-4-4-4-4 1.8008-4 4 1.8008 4 4 4zm0-6c1.1016 0 2 0.89844 2 2s-0.89844 2-2 2-2-0.89844-2-2 0.89844-2 2-2z"/>
  <path d="m64.5 16c0-3-2.5-5.5-5.5-5.5s-5.5 2.5-5.5 5.5 2.5 5.5 5.5 5.5 5.5-2.5 5.5-5.5zm-9 0c0-1.8984 1.6016-3.5 3.5-3.5s3.5 1.6016 3.5 3.5-1.6016 3.5-3.5 3.5-3.5-1.6016-3.5-3.5z"/>
 </g>
</svg>