<svg xmlns="http://www.w3.org/2000/svg" fill="#2563eb" xmlns:xlink="http://www.w3.org/1999/xlink" version="1.1" x="0px" y="0px" viewBox="0 0 512 640" style="enable-background:new 0 0 512 512;" xml:space="preserve"><g><g><g><path d="M452.6,258.2H59.5c-10.2,0-18.5-8.3-18.5-18.5s8.3-18.5,18.5-18.5h393c10.2,0,18.5,8.3,18.5,18.5     S462.8,258.2,452.6,258.2z M59.5,231c-4.8,0-8.7,3.9-8.7,8.7s3.9,8.7,8.7,8.7h393c4.8,0,8.7-3.9,8.7-8.7s-3.9-8.7-8.7-8.7H59.5z"/></g><g><g><g><path d="M404.4,454.8H107.7c-12.9,0-23.9-9.7-25.8-22.5L57.8,254c-0.4-2.7,1.5-5.2,4.2-5.5c2.7-0.4,5.2,1.5,5.5,4.2l24,178.3       c1.1,8,8,14.1,16.1,14.1h296.7c8.1,0,15-6,16.1-14.1l24-178.3c0.4-2.7,2.8-4.5,5.5-4.2c2.7,0.4,4.5,2.9,4.2,5.5l-24,178.3       C428.5,445.1,417.4,454.8,404.4,454.8z"/></g></g></g><g><g><g><path d="M129.2,407.4c-9.2,0-16.8-7.6-16.8-16.8v-78.1c0-9.2,7.6-16.8,16.8-16.8c9.2,0,16.8,7.6,16.8,16.8v78.1       C146,399.9,138.4,407.4,129.2,407.4z M129.2,305.6c-3.9,0-7,3.1-7,7v78.1c0,3.9,3.1,7,7,7c3.9,0,7-3.1,7-7v-78.1       C136.2,308.7,133.1,305.6,129.2,305.6z"/></g></g><g><g><path d="M192.6,407.4c-9.2,0-16.8-7.6-16.8-16.8v-78.1c0-9.2,7.6-16.8,16.8-16.8c9.2,0,16.8,7.6,16.8,16.8v78.1       C209.4,399.9,201.9,407.4,192.6,407.4z M192.6,305.6c-3.9,0-7,3.1-7,7v78.1c0,3.9,3.1,7,7,7c3.9,0,7-3.1,7-7v-78.1       C199.6,308.7,196.5,305.6,192.6,305.6z"/></g></g><g><g><path d="M256,407.4c-9.2,0-16.8-7.6-16.8-16.8v-78.1c0-9.2,7.6-16.8,16.8-16.8c9.2,0,16.8,7.6,16.8,16.8v78.1       C272.9,399.9,265.3,407.4,256,407.4z M256,305.6c-3.9,0-7,3.1-7,7v78.1c0,3.9,3.1,7,7,7c3.9,0,7-3.1,7-7v-78.1       C263.1,308.7,259.9,305.6,256,305.6z"/></g></g><g><g><path d="M319.5,407.4c-9.2,0-16.8-7.6-16.8-16.8v-78.1c0-9.2,7.6-16.8,16.8-16.8s16.8,7.6,16.8,16.8v78.1       C336.3,399.9,328.7,407.4,319.5,407.4z M319.5,305.6c-3.9,0-7,3.1-7,7v78.1c0,3.9,3.1,7,7,7s7-3.1,7-7v-78.1       C326.5,308.7,323.4,305.6,319.5,305.6z"/></g></g><g><g><path d="M382.9,407.4c-9.2,0-16.8-7.6-16.8-16.8v-78.1c0-9.2,7.6-16.8,16.8-16.8c9.2,0,16.8,7.6,16.8,16.8v78.1       C399.7,399.9,392.1,407.4,382.9,407.4z M382.9,305.6c-3.9,0-7,3.1-7,7v78.1c0,3.9,3.1,7,7,7c3.9,0,7-3.1,7-7v-78.1       C389.9,308.7,386.8,305.6,382.9,305.6z"/></g></g></g></g><g><g><path d="M192.7,231c-0.2,0-0.4,0-0.6,0c-2.7-0.4-4.6-2.8-4.3-5.5c3.4-27.4,20.9-43.6,46.8-43.6c24.3,0,44.3,19.9,44.4,44.3     c0,2.7-2.1,4.9-4.9,4.9l0,0c-2.7,0-4.9-2.2-4.9-4.9c-0.1-19-15.6-34.5-34.6-34.5c-9.8,0-33.1,3.4-37.1,35.1     C197.2,229.3,195.1,231,192.7,231z"/></g><g><path d="M345.4,231c-2.7,0-4.9-2.2-4.9-4.9V125.6l-17.1-28.8c-0.5-0.8-0.7-1.8-0.6-2.7l0.7-25.7c0-0.5-0.3-0.8-0.4-1     c-0.2-0.2-0.5-0.5-1-0.5h-71.5c-0.7,0-1.4,0.6-1.4,1.4v25.9c0,1.3-0.6,2.6-1.5,3.5L212.6,132v63.6c0,2.7-2.2,4.9-4.9,4.9     s-4.9-2.2-4.9-4.9V130c0-1.3,0.6-2.6,1.5-3.5l35.2-34.3V68.4c0-6.1,5-11.2,11.2-11.2h71.5c3.1,0,5.8,1.2,8,3.4     c2.1,2.2,3.2,5.1,3.1,8.1l-0.7,24.3l17.1,28.8c0.5,0.7,0.6,1.6,0.6,2.5v101.9C350.3,228.9,348.1,231,345.4,231z"/></g><g><path d="M290.7,231c-2.7,0-4.9-2.2-4.9-4.9v-96.2c0-1.3,0.6-2.6,1.5-3.5L324,90.6c1.9-1.8,5-1.8,6.9,0.1c1.8,1.9,1.8,5-0.1,6.9     l-35.2,34.3v94.2C295.6,228.9,293.4,231,290.7,231z"/></g><g><path d="M327.6,99h-83.2c-2.7,0-4.9-2.2-4.9-4.9s2.2-4.9,4.9-4.9h83.2c2.7,0,4.9,2.2,4.9,4.9C332.5,96.9,330.3,99,327.6,99z"/></g><g><g><path d="M173.1,231c-2.7,0-4.9-2.2-4.9-4.9v-43.5c-0.2-9.1-1-17.9-2.4-26.4c-2.3-14.3-6.3-28.1-11.8-41      c-3.9-9.1-7.3-18.4-6.7-33.4c0.1-2.7,2.4-4.8,5.1-4.7c2.7,0.1,4.8,2.4,4.7,5.1c-0.6,13,2.3,20.9,5.8,29.1      c5.8,13.6,10,28.1,12.5,43.3c1.5,9,2.3,18.3,2.5,27.8v0.1V226C177.9,228.9,175.8,231,173.1,231z"/></g><g><path d="M94.1,231c-2.7,0-4.9-2.2-4.9-4.9v-43.5v-0.1c0.2-9.5,1-19,2.5-27.8c2.5-15.1,6.7-29.7,12.5-43.3      c3.5-8.3,6.3-16.3,5.7-29.1c-0.1-2.7,1.9-5,4.7-5.1c2.7-0.1,5,1.9,5.1,4.7c0.6,14.9-2.8,24.2-6.6,33.4      c-5.5,12.9-9.5,26.7-11.8,41c-1.4,8.5-2.2,17.4-2.4,26.4v43.5C99,228.9,96.8,231,94.1,231z"/></g><g><path d="M153.3,86.9h-39.6c-4.9,0-8.9-4-8.9-8.9V66.1c0-4.9,4-8.9,8.9-8.9h39.6c4.9,0,8.9,4,8.9,8.9v11.8      c0.1,2.3-0.7,4.5-2.4,6.2C158.1,85.9,155.8,86.9,153.3,86.9z M152.5,78.2L152.5,78.2L152.5,78.2z M114.6,77.2h37.9V67h-37.9      V77.2z"/></g></g><g><path d="M173.1,198.7H94c-2.7,0-4.9-2.2-4.9-4.9s2.2-4.9,4.9-4.9h79c2.7,0,4.9,2.2,4.9,4.9S175.8,198.7,173.1,198.7z"/></g><g><path d="M170.6,160.4H96.5c-2.7,0-4.9-2.2-4.9-4.9s2.2-4.9,4.9-4.9h74.1c2.7,0,4.9,2.2,4.9,4.9S173.3,160.4,170.6,160.4z"/></g><g><path d="M290.7,134.8h-82.9c-2.7,0-4.9-2.2-4.9-4.9c0-2.7,2.2-4.9,4.9-4.9h82.7l54.5-5.6c2.7-0.3,5.1,1.7,5.4,4.3     c0.3,2.7-1.7,5.1-4.3,5.4l-54.7,5.6C291.1,134.8,290.9,134.8,290.7,134.8z"/></g><g><g><path d="M386.3,231c-1,0-2-0.3-3-1c-2.1-1.7-2.6-4.7-0.9-6.8c7.3-9.7,13.9-21.4,19.1-34.1c15.7-38,14.1-69.6,3.1-74.2      c-2.4-1-5.5-0.7-9.1,0.6c-13.7,5.6-30.3,27.4-41.2,53.9c-1.3,3.2-2.9,7.2-4.2,11.2c-0.8,2.6-3.6,4-6.2,3.1      c-2.6-0.8-4-3.6-3.1-6.2c1.4-4.3,3.1-8.3,4.4-11.8c12.1-29.3,30.4-52.6,46.6-59.3c6-2.5,11.6-2.8,16.5-0.6      c18.6,7.7,19.5,45.1,2.2,87c-5.5,13.4-12.6,26-20.3,36.2C389.3,230.4,387.8,231,386.3,231z"/></g><g><g><path d="M392,163.5c-0.6,0-1.3-0.1-1.8-0.4l-9.3-3.9c-2.5-1-3.7-3.9-2.6-6.4c1-2.5,3.9-3.7,6.4-2.6l9.3,3.9       c2.5,1,3.7,3.9,2.6,6.4C395.7,162.3,393.9,163.5,392,163.5z"/></g><g><path d="M373.2,208.8c-0.6,0-1.3-0.1-1.8-0.4l-9.3-3.9c-2.5-1-3.7-3.9-2.6-6.4c1-2.5,3.9-3.7,6.4-2.6l9.3,3.9       c2.5,1,3.7,3.9,2.6,6.4C377,207.6,375.1,208.8,373.2,208.8z"/></g><g><path d="M387.7,188.2c-0.6,0-1.3-0.1-1.8-0.4l-19.5-8.1c-2.5-1-3.7-3.9-2.7-6.4c1-2.5,3.9-3.7,6.4-2.7l19.5,8.1       c2.5,1,3.7,3.9,2.7,6.4C391.4,187.1,389.6,188.2,387.7,188.2z"/></g></g></g></g></g></svg>