<svg xmlns:dc="http://purl.org/dc/elements/1.1/" xmlns:cc="http://creativecommons.org/ns#" xmlns:rdf="http://www.w3.org/1999/02/22-rdf-syntax-ns#" xmlns:svg="http://www.w3.org/2000/svg" xmlns="http://www.w3.org/2000/svg" xmlns:sodipodi="http://sodipodi.sourceforge.net/DTD/sodipodi-0.dtd" xmlns:inkscape="http://www.inkscape.org/namespaces/inkscape" version="1.1" x="0px" y="0px" viewBox="0 0 100 125"><g transform="translate(0,-952.36218)"><path style="text-indent:0;text-transform:none;direction:ltr;block-progression:tb;baseline-shift:baseline;color:#000000;enable-background:accumulate;" d="m 46.000128,959.36136 c -0.1381,0 -0.2554,0.012 -0.375,0.062 l -39.8438001,15.938 c -0.4472,0.1001 -0.7922,0.5419 -0.7812,1 l 0,49.99994 c -0.01,0.4666 0.3541,0.9125 0.8125,1 l 39.6250001,17.8438 c 0.4643,0.2635 0.8824,0.1656 1.2187,-0.063 l 21.4688,-9.6562 c 2.7447,3.5628 7.039,5.875 11.875,5.875 8.2724,0 15,-6.7276 15,-15 0,-5.747 -3.2438,-10.7319 -8,-13.25 l 0,-36.74994 c 0.019,-0.4947 -0.3838,-0.9698 -0.875,-1.0312 l -39.75,-15.9063 c -0.1196,-0.05 -0.2369,-0.062 -0.375,-0.062 z m 0,2.0625 37.3125,14.9375 -17.3125,6.9062 -37.3125,-14.9062 17.3125,-6.9375 z m -20,8 37.3125,14.9375 -17.3125,6.9062 -37.3125,-14.9062 17.3125,-6.9375 z m -19,8.4063 38,15.1874 0,49.78124 -38,-17.0937 0,-47.87494 z m 78,0 0,34.40614 c -1.5628,-0.5532 -3.2499,-0.875 -5,-0.875 -8.2724,0 -15,6.7276 -15,15 0,2.7072 0.7407,5.2429 2,7.4375 l -20,9 0,-49.78124 18,-7.1874 0,14.53124 c -0.01,0.5283 0.4716,1 1,1 0.5284,0 1.0075,-0.4717 1,-1 l 0,-15.31254 18,-7.2187 z m -5,35.53114 c 7.1916,0 13,5.8084 13,13 0,7.1915 -5.8084,13 -13,13 -7.1915,0 -13,-5.8085 -13,-13 0,-7.1916 5.8085,-13 13,-13 z m 0,2 c -1.3576,0 -2.647,0.2725 -3.7188,0.875 -1.0718,0.6025 -1.9391,1.5611 -2.25,2.7812 a 1.0005366,1.0005366 0 1 0 1.9376,0.5 c 0.1549,-0.6082 0.5719,-1.1325 1.2812,-1.5312 0.7093,-0.3987 1.6928,-0.625 2.75,-0.625 2.2693,0 4.0111,1.783 4,3 -0.02,2.1988 -1.0261,3.1934 -2.2812,4.625 -1.2554,1.4316 -2.7188,3.2929 -2.7188,6.375 a 1.0001,1.0001 0 1 0 2,0 c 0,-2.4893 1.0167,-3.6247 2.25,-5.0312 1.2333,-1.4064 2.7241,-3.1166 2.75,-5.9688 0.025,-2.7466 -2.7495,-5 -6,-5 z m 0,19 c -0.8284,0 -1.5,0.6716 -1.5,1.5 0,0.8284 0.6716,1.5 1.5,1.5 0.8284,0 1.5,-0.6716 1.5,-1.5 0,-0.8284 -0.6716,-1.5 -1.5,-1.5 z" fill="#2563eb" fill-opacity="1" stroke="none" marker="none" visibility="visible" display="inline" overflow="visible"/></g></svg>