<svg xmlns="http://www.w3.org/2000/svg" version="1.1" fill="#2563eb" viewBox="-5.0 -10.0 110.0 135.0"><path d="m12.324 62.328c0 0.82812-0.67188 1.5-1.5 1.5s-1.5-0.67188-1.5-1.5v-0.12891c0-0.82812 0.67188-1.5 1.5-1.5s1.5 0.67188 1.5 1.5zm6.2227-30.969c1.9023-1.7266 4.8672-3.1797 8.5078-4.1758 3.5195-0.96875 7.6914 -1.5312 12.145-1.5312 6.1758 0 11.805 1.0781 15.898 2.8164 4.4844 1.9023 7.2578 4.6797 7.2578 7.875 0 1.582-0.67578 3.0664-1.9062 4.3867-0.97266 1.0469-2.3008 1.9961-3.918 2.8203v5.9531c2.5039-0.4375 5.1211-0.6875 7.8047-0.6875 3.5938 0 7.0586 0.44141 10.289 1.1875 3.5898 0.82812 6.8945 2.0469 9.7812 3.4648 0.74219 0.36328 1.0469 1.2578 0.68359 2-0.36328 0.74219-1.2578 1.0469-2 0.68359-1.4844-0.73047-3.0977-1.4023-4.8086-1.9883l-2.5 7c-0.27734 0.78125-1.1367 1.1875-1.918 0.91016-0.78125-0.27734-1.1875-1.1367-0.91016-1.918l2.4492-6.8711c-0.48047-0.12891-0.96484-0.25-1.457-0.36328-2.1797-0.50391-4.4766-0.85938-6.8594-1.0156l-2.9297 8.2148c-0.27344 0.78125-1.1328 1.1875-1.9102 0.91406-0.78125-0.27344-1.1875-1.1328-0.91406-1.9102l2.6055-7.3047c-2.9258 0.027344-5.7422 0.35938-8.3906 0.91406l-3.0078 8.4297c-0.27734 0.78125-1.1367 1.1875-1.918 0.91016-0.78125-0.27734-1.1875-1.1367-0.91016-1.918l2.3281-6.5273c-2.9961 0.89453-5.7188 2.0586-8.0625 3.3477v11.324c5.6094 0.80078 12.973 1.2031 20.344 1.2031 7.4805 0 14.945-0.41406 20.578-1.2344 5.0078-0.73047 8.3984-1.5859 8.5898-2.4688-0.011719-0.76172-0.45703-1.7266-1.2656-2.8008-0.93359-1.2344-2.3086-2.5391-4.0391-3.8008-0.66797-0.48438-0.8125-1.418-0.32812-2.0859s1.418-0.8125 2.0859-0.32812c1.9883 1.4492 3.5781 2.9648 4.6719 4.4102 1.2148 1.6094 1.875 3.1992 1.875 4.6289l-0.03125 0.39844c-0.36719 2.4414-4.7539 4.082-11.133 5.0117-5.7969 0.84375-13.41 1.2695-21 1.2695-7.3125 0-14.641-0.39453-20.344-1.1758v1.5195c0 0.82812-0.67188 1.5-1.5 1.5h-31.668c-0.82812 0-1.5-0.67188-1.5-1.5v-5.1992c0-0.82813 0.67188-1.5 1.5-1.5s1.5 0.67187 1.5 1.5v3.6992h28.668v-23.68c0.003906-0.57031 0.33203-1.1172 0.88281-1.3672 1.6602-0.75391 2.9727-1.6211 3.8438-2.5547 0.70703-0.76172 1.0977-1.5586 1.0977-2.3516 0-1.8789-2.0742-3.6992-5.4297-5.1211-3.7383-1.5859-8.9453-2.5703-14.727-2.5703s-10.992 0.98438-14.73 2.5703c-3.3555 1.4219-5.4297 3.2461-5.4297 5.1211 0 0.78906 0.39062 1.5859 1.0977 2.3438 0.86328 0.92969 2.1797 1.793 3.8359 2.5508 0.52344 0.23438 0.89062 0.76172 0.89062 1.3711v9.207c0 0.82812-0.67188 1.5-1.5 1.5s-1.5-0.67188-1.5-1.5v-8.2656c-1.6133-0.82422-2.9453-1.7773-3.9219-2.8242-1.2266-1.3203-1.9023-2.8008-1.9023-4.3828 0-3.1992 2.7734-5.9727 7.2578-7.875 2.2031-0.93359 4.8516-1.6797 7.7891-2.168zm34.98 18.773v-7.5195c0.003906-0.57031 0.33203-1.1172 0.88281-1.3672 1.6602-0.75391 2.9727-1.6211 3.8438-2.5547 0.70703-0.76172 1.0977-1.5586 1.0977-2.3477 0-1.8789-2.0742-3.6992-5.4297-5.1211-3.7383-1.5859-8.9453-2.5703-14.727-2.5703-4.2109 0-8.1133 0.51953-11.359 1.4102-0.73047 0.19922-1.4297 0.41797-2.0898 0.65625l0.91016-0.007812c6.1758 0 11.805 1.0781 15.898 2.8164 4.4844 1.9023 7.2578 4.6797 7.2578 7.875 0 1.5859-0.67578 3.0664-1.9062 4.3906-0.97266 1.0469-2.3008 1.9961-3.918 2.8203v4.9922c2.6719-1.3359 5.7109-2.5 9-3.3438l0.125-0.027344 0.41016-0.10156z"/></svg>