<svg xmlns="http://www.w3.org/2000/svg" fill="#2563eb" xmlns:xlink="http://www.w3.org/1999/xlink" version="1.1" x="0px" y="0px" viewBox="0 0 24 30" style="enable-background:new 0 0 24 24;" xml:space="preserve"><g><g><path d="M19.5,18.5h-17C1.122,18.5,0,17.378,0,16V6c0-1.378,1.122-2.5,2.5-2.5h17C20.878,3.5,22,4.622,22,6v10    C22,17.378,20.878,18.5,19.5,18.5z M2.5,4.5C1.673,4.5,1,5.173,1,6v10c0,0.827,0.673,1.5,1.5,1.5h17c0.827,0,1.5-0.673,1.5-1.5V6    c0-0.827-0.673-1.5-1.5-1.5H2.5z"/></g><g><path d="M21.5,20.5h-17C3.122,20.5,2,19.378,2,18c0-0.276,0.224-0.5,0.5-0.5S3,17.724,3,18c0,0.827,0.673,1.5,1.5,1.5h17    c0.827,0,1.5-0.673,1.5-1.5V8c0-0.827-0.673-1.5-1.5-1.5C21.224,6.5,21,6.276,21,6s0.224-0.5,0.5-0.5C22.878,5.5,24,6.622,24,8v10    C24,19.378,22.878,20.5,21.5,20.5z"/></g><g><path d="M7.5,16.5C4.467,16.5,2,14.033,2,11s2.467-5.5,5.5-5.5S13,7.967,13,11S10.533,16.5,7.5,16.5z M7.5,6.5    C5.019,6.5,3,8.519,3,11s2.019,4.5,4.5,4.5S12,13.481,12,11S9.981,6.5,7.5,6.5z"/></g><g><g><path d="M7.5,12.5C6.122,12.5,5,11.378,5,10s1.122-2.5,2.5-2.5S10,8.622,10,10S8.878,12.5,7.5,12.5z M7.5,8.5     C6.673,8.5,6,9.173,6,10s0.673,1.5,1.5,1.5S9,10.827,9,10S8.327,8.5,7.5,8.5z"/></g><g><path d="M7.5,16.5c-1.467,0-2.848-0.571-3.886-1.608c-0.135-0.135-0.182-0.335-0.119-0.516c0.591-1.72,2.2-2.875,4.005-2.875     s3.414,1.156,4.005,2.875c0.063,0.181,0.016,0.381-0.119,0.516C10.348,15.929,8.967,16.5,7.5,16.5z M4.558,14.405     c1.635,1.416,4.249,1.416,5.884,0C9.917,13.254,8.772,12.5,7.5,12.5S5.083,13.254,4.558,14.405z"/></g></g><g><path d="M19.5,8.5h-5C14.224,8.5,14,8.276,14,8s0.224-0.5,0.5-0.5h5C19.776,7.5,20,7.724,20,8S19.776,8.5,19.5,8.5z"/></g><g><path d="M19.5,11.5h-5c-0.276,0-0.5-0.224-0.5-0.5s0.224-0.5,0.5-0.5h5c0.276,0,0.5,0.224,0.5,0.5S19.776,11.5,19.5,11.5z"/></g><g><path d="M19.5,14.5h-5c-0.276,0-0.5-0.224-0.5-0.5s0.224-0.5,0.5-0.5h5c0.276,0,0.5,0.224,0.5,0.5S19.776,14.5,19.5,14.5z"/></g></g></svg>