<svg xmlns="http://www.w3.org/2000/svg" version="1.1" fill="#2563eb" viewBox="-5.0 -10.0 110.0 135.0">
 <g>
  <path d="m79.844 11.25c-0.42578-0.32031-0.98828-0.39844-1.4844-0.21484l-71.094 26.562c-0.59766 0.25391-0.98438 0.82031-1.0156 1.4648v21.875c0 0.65234 0.40625 1.2344 1.0156 1.4648l71.094 26.562c0.49609 0.19531 1.0586 0.085937 1.4844-0.21484 2.3203-1.7422 13.906-11.27 13.906-27.812v-21.875c0-2.9023-0.66797-17.887-13.906-27.812zm-2.5 63.062-17.781-6.6367c-1.9414-0.6875-3 2.1797-1.0938 2.9297l18.875 7.043v7.6016l-67.969-25.398v-7.6016l26.016 9.7266c0.78906 0.30078 1.7109-0.10156 2.0117-0.91797 0.30078-0.80859-0.10938-1.707-0.91406-2.0117l-27.109-10.137v-7.6016l31.797 11.879c0.60547 0.22656 1.0156 0.81641 1.0156 1.4648v7.8438c0 3.4453 2.8047 6.25 6.25 6.25 3.4453 0 6.25-2.8047 6.25-6.25v-2.0039c-0.035156-1.0586 1.1328-1.8633 2.1094-1.4648 0 0 20.547 7.6758 20.547 7.6758v7.6016zm13.281-13.375c0 11.555-6.418 19.488-10.156 23.133v-17.684c2.0938-1.6836 6.9297-6.1172 10.156-13.117zm-12 2.9141-20.734-7.7461c-2.9375-1.1914-6.418 1.2227-6.3281 4.3906v2.0039c0 1.7227-1.4023 3.125-3.125 3.125s-3.125-1.4023-3.125-3.125v-7.8438c0-1.9453-1.2227-3.7109-3.0469-4.3906l-29.988-11.207 66.363-24.793c11.645 9.2383 11.984 23.207 11.984 24.793 0 13.895-9.2617 22.535-12 24.789z"/>
  <path d="m74.125 23.98c-2.5859 0-4.6875 2.1016-4.6875 4.6875 0.035156 2.0547 3.0898 2.0547 3.125 0 0.035156-2.0547 3.0898-2.0547 3.125 0 0.03125 2.0547 3.0898 2.0547 3.125 0 0-2.5859-2.1016-4.6875-4.6875-4.6875z"/>
  <path d="m59.738 35.418c-2.5859 0-4.6875 2.1016-4.6875 4.6875 0.035157 2.0547 3.0898 2.0547 3.125 0 0.035157-2.0547 3.0898-2.0547 3.125 0 0.03125 2.0547 3.0898 2.0547 3.125 0 0-2.5859-2.1016-4.6875-4.6875-4.6875z"/>
  <path d="m73.441 46.875c-2.5859 0-4.6875 2.1016-4.6875 4.6875 0.035156 2.0547 3.0898 2.0547 3.125 0s3.0898-2.0547 3.125 0c0.03125 2.0547 3.0898 2.0547 3.125 0 0-2.5859-2.1016-4.6875-4.6875-4.6875z"/>
  <path d="m37.789 35.938c-2.5859 0-4.6875 2.1016-4.6875 4.6875 0.035157 2.0547 3.0898 2.0547 3.125 0 0.035157-2.0547 3.0898-2.0547 3.125 0 0.03125 2.0547 3.0898 2.0547 3.125 0 0-2.5859-2.1016-4.6875-4.6875-4.6875z"/>
 </g>
</svg>