<svg xmlns="http://www.w3.org/2000/svg" fill="#2563eb" version="1.1" viewBox="-5.0 -10.0 110.0 135.0">
 <g>
  <path d="m15.562 47.844c-2.0781 2.5156-2.125 6.9688-0.14062 13.25 0.625 1.9688 1.4375 3.0625 2.5938 3.4375 0.20312 0.0625 0.40625 0.10938 0.625 0.125 0.5625 5.875 1.8281 17.891 2.9219 19.172 1.2344 1.4375 12.516 5.5156 26.391 5.5156 2.0781 0 4.2031-0.09375 6.3594-0.29688 18.547-1.75 25.797-9.4688 26.562-10.344 1.3281-1.5156 0.40625-15.344-0.10938-21.688 0.40625-0.32812 0.73438-0.64062 0.95312-0.90625 1.5781-1.8281 1.25-10.812 0.14062-13.797-1.125-3.0625-11.391-8.25-31.047-7.2031v-9.5469c0-0.34375-0.23438-0.65625-0.5625-0.75-1.0469-0.3125-2.7031-0.5625-4.5938-0.015625-1.7656 0.51562-2.9688 1.5312-3.6562 2.2812-0.15625 0.17188-0.23438 0.40625-0.20312 0.64062l1.2188 8.1406c-19.078 2.7656-27.094 11.578-27.453 11.984zm64.422 22.609c-2.1094 1.3125-14.281 8.4688-29.031 8.9375-14.578 0.46875-27.016-2.9375-29.469-3.6562-0.3125-2.2969-0.625-4.9531-0.90625-7.6875 3 0.85938 12.562 3.25 25.703 3.25 1.25 0 2.5312-0.015625 3.8438-0.0625 14.953-0.53125 26.047-6.625 29.5-8.7656 0.15625 2.8594 0.28125 5.6094 0.35938 7.9844zm-0.26562 7.2031c-0.71875 0.82812-7.5781 8.125-25.531 9.8281-16.031 1.5156-30.312-3.5469-31.406-4.6562-0.28125-0.4375-0.65625-2.5-1.0781-5.3906 3.4219 0.95312 13.953 3.5781 26.5 3.5781 0.92188 0 1.8438-0.015625 2.7812-0.046875 13.797-0.4375 25.422-6.5938 29.031-8.7031 0.046875 2.875-0.046875 4.9219-0.29688 5.3906zm-0.23438-16.969c-2.0312 1.3281-13.469 8.4062-29.438 8.9688-16.141 0.57812-27.656-2.6875-29.656-3.2969-0.0625-0.64062-0.125-1.2812-0.1875-1.9062 1.3594-0.42188 2.9688-1.4531 5.0625-2.9688 2.4531-1.7812 4.7031-0.26562 7.3125 1.5 1.8125 1.2188 3.6719 2.4844 5.6719 2.4844 0.125 0 0.26562 0 0.39062-0.015625 2.2656-0.1875 3.25-2.0938 4.0312-3.625 0.51562-0.98438 0.98438-1.9219 1.625-2.0312 0.4375-0.078125 1.3281 0.14062 3.0156 1.6406 5.9844 5.3125 9.8125 3 13.188 0.96875 0.48438-0.29688 0.98438-0.59375 1.4688-0.85938 1.3125-0.71875 2.3438-1.6719 3.25-2.5 1.9844-1.8281 3.2812-3.0312 6.3438-1.6875 3.4844 1.5469 6 1.2812 7.7031 0.54688 0.09375 0.90625 0.15625 1.8438 0.21875 2.7812zm-33.359-34.406c1.25-0.35938 2.375-0.28125 3.1562-0.125v16.672c-0.46875 0.20312-1.0312 0.40625-1.8281 0.35938-0.71875-0.015625-1.3281-0.20312-1.7656-0.39062l-2.25-14.938c0.5625-0.5625 1.4531-1.2188 2.6875-1.5781zm-2.8438 11.109 0.54688 3.625c-1.625-0.35938-4.0156-0.17188-6.2188 2.0781-0.29688 0.3125-0.29688 0.79688 0.015625 1.1094 0.15625 0.15625 0.34375 0.21875 0.54688 0.21875s0.40625-0.078125 0.5625-0.23438c2.2969-2.3438 4.5469-1.7812 5.3594-1.4531l0.10938 0.6875c0.03125 0.23438 0.1875 0.45312 0.39062 0.5625 0.85938 0.48438 1.8438 0.75 2.8281 0.76562h0.09375c1.2812 0 2.2969-0.40625 2.9219-0.76562 0.25-0.14062 0.40625-0.40625 0.40625-0.6875v-0.60938c0.84375-0.39062 3.0469-1.2031 4.5625 0.09375 0.32812 0.28125 0.82812 0.23438 1.0938-0.09375 0.28125-0.32812 0.23438-0.82812-0.09375-1.1094-1.8438-1.5781-4.2031-1.0938-5.5781-0.59375v-4.3594c20.312-1.0938 28.953 4.4844 29.578 6.1875 1.1562 3.1406 1.0938 11.141 0.14062 12.234-1.0469 1.2188-3.5312 2.9531-8.3438 0.82812-4-1.7656-6.0469 0.125-8.0312 1.9688-0.875 0.8125-1.7969 1.6562-2.9375 2.2812-0.51562 0.28125-1.0312 0.59375-1.5312 0.89062-3.3438 2.0156-6.2344 3.75-11.344-0.79688-1.7812-1.5938-3.1719-2.2344-4.3438-2.0156-1.375 0.25-2.0625 1.5781-2.7188 2.8594-0.82812 1.6094-1.4688 2.6719-2.7812 2.7812-1.5781 0.125-3.2812-1-5.0625-2.2031-2.7031-1.8281-5.7812-3.8906-9.1094-1.4688-2.7031 1.9531-4.7344 3.1875-5.8281 2.8281-0.625-0.20312-1.1406-1-1.5938-2.4219-1.7812-5.6562-1.8281-9.7344-0.15625-11.75 0.078125-0.0625 8.0156-8.75 26.516-11.438z"/>
  <path d="m67.219 47.734c0.078125 0 0.15625-0.015625 0.23438-0.03125 6.2656-1.9688 9.0625-3.6562 9.1719-3.7188 0.375-0.21875 0.48438-0.70312 0.26562-1.0781-0.21875-0.35938-0.70312-0.48438-1.0781-0.26562-0.03125 0.015625-2.7812 1.6719-8.8281 3.5625-0.40625 0.125-0.64062 0.5625-0.51562 0.98438 0.10938 0.34375 0.40625 0.54688 0.75 0.54688z"/>
  <path d="m19.234 51.828c0.09375 0.015625 6.1406 1 14.766 1 4.3281 0 9.3281-0.25 14.531-1 3.8125-0.54688 7.4844-1.2188 10.875-1.9844 0.42188-0.09375 0.6875-0.51562 0.59375-0.9375s-0.51562-0.6875-0.9375-0.59375c-3.3594 0.76562-6.9688 1.4219-10.75 1.9531-15.297 2.2031-28.672 0.03125-28.812 0-0.42188-0.078125-0.82812 0.21875-0.90625 0.64062-0.078125 0.45312 0.20312 0.85938 0.64062 0.92188z"/>
  <path d="m45.547 23.797c0.10938 0.0625 0.25 0.09375 0.375 0.09375 0.17188 0 0.34375-0.0625 0.48438-0.17188 0.10938-0.09375 2.8125-2.25 2.4062-6.5156-0.40625-4.1875-3.2344-6.2969-3.3594-6.3906-0.32812-0.25-0.79688-0.1875-1.0625 0.125-0.125 0.15625-3.1719 3.8594-2.3594 7.6094 0.79688 3.75 3.4062 5.1875 3.5156 5.25zm-0.4375-11.188c0.73438 0.76562 1.9219 2.3281 2.1406 4.75 0.23438 2.4844-0.8125 4.0625-1.4219 4.75-0.65625-0.51562-1.8281-1.7188-2.2812-3.875-0.46875-2.1875 0.8125-4.5156 1.5625-5.625z"/>
  <path d="m16.516 83.453c0.046875 0 0.078125 0 0.125-0.015625 0.42188-0.0625 0.71875-0.46875 0.65625-0.89062-0.32812-2.1406-0.67188-4.8281-1-8.0156-0.046875-0.4375-0.4375-0.73438-0.85938-0.6875s-0.73438 0.4375-0.6875 0.85938c0.34375 3.2031 0.6875 5.9219 1.0156 8.0781 0.03125 0.39062 0.375 0.67188 0.75 0.67188z"/>
  <path d="m14.344 70.953c0.046875 0.40625 0.375 0.70312 0.78125 0.70312h0.078125c0.42188-0.046875 0.75-0.42188 0.70312-0.85938-0.23438-2.3906-0.35938-4.0469-0.35938-4.0469-0.03125-0.42188-0.42188-0.73438-0.84375-0.71875-0.4375 0.03125-0.75 0.40625-0.71875 0.84375 0 0.015625 0.125 1.6719 0.35938 4.0781z"/>
  <path d="m85.062 77.562h0.046875c0.40625 0 0.75-0.3125 0.78125-0.73438 0.078125-1.1719 0.125-2.5 0.125-3.9844 0-0.4375-0.34375-0.78125-0.78125-0.78125-0.42188 0-0.78125 0.34375-0.78125 0.78125-0.015625 1.4375-0.046875 2.75-0.125 3.8906-0.03125 0.42188 0.29688 0.79688 0.73438 0.82812z"/>
  <path d="m85.141 68.078h0.03125c0.4375-0.015625 0.76562-0.375 0.75-0.8125-0.1875-5.0469-0.59375-9.4375-0.59375-9.4844-0.046875-0.42188-0.42188-0.75-0.84375-0.70312-0.4375 0.046875-0.75 0.42188-0.70312 0.84375 0 0.046875 0.40625 4.3906 0.59375 9.4062 0 0.42188 0.35938 0.75 0.76562 0.75z"/>
 </g>
</svg>